<svg width="22" height="22" viewBox="0 0 22 22" fill="none" xmlns="http://www.w3.org/2000/svg">
<path d="M20.2104 14.8749C19.5742 16.3794 18.5792 17.7051 17.3123 18.7362C16.0454 19.7673 14.5452 20.4724 12.9428 20.7897C11.3405 21.1071 9.68483 21.0271 8.12055 20.5567C6.55627 20.0864 5.13103 19.24 3.96942 18.0916C2.80782 16.9432 1.94522 15.5277 1.45704 13.9689C0.968859 12.4101 0.869965 10.7554 1.169 9.14957C1.46804 7.54371 2.1559 6.03556 3.17245 4.75696C4.189 3.47836 5.50329 2.46825 7.0004 1.81493M20.2392 7.1581C20.6395 8.12456 20.8851 9.1463 20.9684 10.1858C20.989 10.4426 20.9993 10.571 20.9483 10.6866C20.9057 10.7833 20.8213 10.8747 20.7284 10.9249C20.6172 10.9849 20.4783 10.9849 20.2004 10.9849H11.8004C11.5204 10.9849 11.3804 10.9849 11.2734 10.9304C11.1793 10.8825 11.1028 10.806 11.0549 10.7119C11.0004 10.605 11.0004 10.465 11.0004 10.1849V1.78493C11.0004 1.50707 11.0004 1.36813 11.0605 1.25692C11.1107 1.16401 11.2021 1.07962 11.2987 1.03703C11.4144 0.986034 11.5428 0.996328 11.7996 1.01692C12.839 1.10025 13.8608 1.34582 14.8272 1.74614C16.0405 2.24868 17.1429 2.98528 18.0715 3.91387C19.0001 4.84245 19.7367 5.94484 20.2392 7.1581Z" stroke="white" stroke-width="2" stroke-linecap="round" stroke-linejoin="round"/>
</svg>
