<svg width="18" height="22" viewBox="0 0 18 22" fill="none" xmlns="http://www.w3.org/2000/svg">
<path d="M9 1.432V20.432M17 10.932C17 15.8404 11.646 19.4104 9.69799 20.5469C9.4766 20.676 9.3659 20.7406 9.20968 20.7741C9.08844 20.8001 8.91156 20.8001 8.79032 20.7741C8.6341 20.7406 8.5234 20.676 8.30201 20.5469C6.35396 19.4104 1 15.8404 1 10.932V6.1496C1 5.35009 1 4.95033 1.13076 4.6067C1.24627 4.30314 1.43398 4.03228 1.67766 3.81753C1.9535 3.57444 2.3278 3.43408 3.0764 3.15335L8.4382 1.14267C8.6461 1.06471 8.75005 1.02573 8.85698 1.01028C8.95184 0.996573 9.04816 0.996573 9.14302 1.01028C9.24995 1.02573 9.3539 1.06471 9.5618 1.14267L14.9236 3.15335C15.6722 3.43408 16.0465 3.57444 16.3223 3.81753C16.566 4.03228 16.7537 4.30314 16.8692 4.6067C17 4.95033 17 5.35009 17 6.1496V10.932Z" stroke="white" stroke-width="2" stroke-linecap="round" stroke-linejoin="round"/>
</svg>
