<svg width="20" height="21" viewBox="0 0 20 21" fill="none" xmlns="http://www.w3.org/2000/svg">
<path d="M6.7875 7.28756H6.79578M1.81812 4.96851L1.81812 8.67444C1.81812 9.07959 1.81812 9.28217 1.86388 9.47281C1.90446 9.64183 1.97139 9.80341 2.06221 9.95161C2.16465 10.1188 2.30789 10.262 2.59438 10.5485L8.94577 16.8999C9.92975 17.8839 10.4217 18.3759 10.9891 18.5602C11.4881 18.7223 12.0257 18.7223 12.5247 18.5602C13.092 18.3759 13.584 17.8839 14.568 16.8999L16.3998 15.068C17.3838 14.0841 17.8758 13.5921 18.0601 13.0247C18.2223 12.5257 18.2223 11.9882 18.0601 11.4891C17.8758 10.9218 17.3838 10.4298 16.3998 9.44583L10.0484 3.09444C9.76196 2.80795 9.61872 2.66471 9.45155 2.56227C9.30335 2.47145 9.14177 2.40452 8.97275 2.36394C8.78211 2.31818 8.57953 2.31818 8.17438 2.31818L4.46845 2.31818C3.54075 2.31818 3.07689 2.31818 2.72256 2.49872C2.41088 2.65753 2.15747 2.91094 1.99866 3.22262C1.81812 3.57696 1.81812 4.04081 1.81812 4.96851ZM7.20161 7.28756C7.20161 7.51627 7.01621 7.70167 6.7875 7.70167C6.55879 7.70167 6.37338 7.51627 6.37338 7.28756C6.37338 7.05885 6.55879 6.87344 6.7875 6.87344C7.01621 6.87344 7.20161 7.05885 7.20161 7.28756Z" stroke="white" stroke-width="1.5" stroke-linecap="round" stroke-linejoin="round"/>
</svg>
