<svg width="20" height="20" viewBox="0 0 20 20" fill="none" xmlns="http://www.w3.org/2000/svg">
<path d="M15 7L9.56569 12.4343C9.36768 12.6323 9.26867 12.7313 9.15451 12.7684C9.05409 12.8011 8.94591 12.8011 8.84549 12.7684C8.73133 12.7313 8.63232 12.6323 8.43431 12.4343L6.56569 10.5657C6.36768 10.3677 6.26867 10.2687 6.15451 10.2316C6.05409 10.1989 5.94591 10.1989 5.84549 10.2316C5.73133 10.2687 5.63232 10.3677 5.43431 10.5657L1 15M15 7H11M15 7V11M5.8 19H14.2C15.8802 19 16.7202 19 17.362 18.673C17.9265 18.3854 18.3854 17.9265 18.673 17.362C19 16.7202 19 15.8802 19 14.2V5.8C19 4.11984 19 3.27976 18.673 2.63803C18.3854 2.07354 17.9265 1.6146 17.362 1.32698C16.7202 1 15.8802 1 14.2 1H5.8C4.11984 1 3.27976 1 2.63803 1.32698C2.07354 1.6146 1.6146 2.07354 1.32698 2.63803C1 3.27976 1 4.11984 1 5.8V14.2C1 15.8802 1 16.7202 1.32698 17.362C1.6146 17.9265 2.07354 18.3854 2.63803 18.673C3.27976 19 4.11984 19 5.8 19Z" stroke="white" stroke-width="2" stroke-linecap="round" stroke-linejoin="round"/>
</svg>
